<svg width="29" height="33" viewBox="0 0 29 33" fill="none" xmlns="http://www.w3.org/2000/svg">
<g id="fa6-solid:user-doctor" clip-path="url(#clip0_37_1545)">
<path id="Vector" d="M14.4229 16.6704C16.5214 16.6704 18.5338 15.8368 20.0176 14.353C21.5014 12.8692 22.335 10.8567 22.335 8.75828C22.335 6.65986 21.5014 4.64739 20.0176 3.16359C18.5338 1.67978 16.5214 0.846191 14.4229 0.846191C12.3245 0.846191 10.312 1.67978 8.82824 3.16359C7.34444 4.64739 6.51085 6.65986 6.51085 8.75828C6.51085 10.8567 7.34444 12.8692 8.82824 14.353C10.312 15.8368 12.3245 16.6704 14.4229 16.6704ZM8.48887 20.0825C3.91469 21.4238 0.576782 25.6518 0.576782 30.6587C0.576782 31.6724 1.3989 32.4945 2.41263 32.4945H26.4332C27.447 32.4945 28.2691 31.6724 28.2691 30.6587C28.2691 25.6518 24.9312 21.4238 20.357 20.0825V23.2226C22.063 23.6614 23.324 25.213 23.324 27.055V29.5275C23.324 30.0715 22.879 30.5165 22.335 30.5165H21.346C20.8021 30.5165 20.357 30.0715 20.357 29.5275C20.357 28.9836 20.8021 28.5385 21.346 28.5385V27.055C21.346 25.9609 20.4621 25.077 19.368 25.077C18.2739 25.077 17.39 25.9609 17.39 27.055V28.5385C17.9339 28.5385 18.379 28.9836 18.379 29.5275C18.379 30.0715 17.9339 30.5165 17.39 30.5165H16.401C15.857 30.5165 15.4119 30.0715 15.4119 29.5275V27.055C15.4119 25.213 16.6729 23.6614 18.379 23.2226V19.693C18.0081 19.6559 17.631 19.6374 17.2478 19.6374H11.5981C11.2148 19.6374 10.8378 19.6559 10.4669 19.693V23.7356C11.8948 24.1621 12.9394 25.4849 12.9394 27.055C12.9394 28.965 11.3879 30.5165 9.47788 30.5165C7.56785 30.5165 6.01634 28.965 6.01634 27.055C6.01634 25.4849 7.06099 24.1621 8.48887 23.7356V20.0825ZM9.47788 28.5385C9.87133 28.5385 10.2487 28.3822 10.5269 28.104C10.8051 27.8258 10.9614 27.4484 10.9614 27.055C10.9614 26.6615 10.8051 26.2842 10.5269 26.006C10.2487 25.7278 9.87133 25.5715 9.47788 25.5715C9.08443 25.5715 8.70709 25.7278 8.42888 26.006C8.15066 26.2842 7.99436 26.6615 7.99436 27.055C7.99436 27.4484 8.15066 27.8258 8.42888 28.104C8.70709 28.3822 9.08443 28.5385 9.47788 28.5385Z" fill="#044BD9" style="fill:#044BD9;fill:color(display-p3 0.0157 0.2941 0.8510);fill-opacity:1;"/>
</g>
<defs>
<clipPath id="clip0_37_1545">
<rect width="27.6923" height="31.6484" fill="white" style="fill:white;fill-opacity:1;" transform="translate(0.576782 0.846191)"/>
</clipPath>
</defs>
</svg>
