<svg width="29" height="28" viewBox="0 0 29 28" fill="none" xmlns="http://www.w3.org/2000/svg">
<g id="fluent:payment-28-filled">
<path id="Vector" d="M6.26775 5.09888C5.28412 5.09888 4.34077 5.48962 3.64524 6.18516C2.94971 6.88069 2.55896 7.82404 2.55896 8.80767V9.54943H26.2913V8.80767C26.2913 7.82404 25.9005 6.88069 25.205 6.18516C24.5095 5.48962 23.5661 5.09888 22.5825 5.09888H6.26775ZM2.55896 19.1923V11.0329H26.2913V19.1923C26.2913 20.1759 25.9005 21.1193 25.205 21.8148C24.5095 22.5103 23.5661 22.9011 22.5825 22.9011H6.26874C5.28511 22.9011 4.34176 22.5103 3.64623 21.8148C2.9507 21.1193 2.55995 20.1759 2.55995 19.1923M18.6264 16.4725C18.4297 16.4725 18.241 16.5507 18.1019 16.6898C17.9628 16.8289 17.8847 17.0175 17.8847 17.2143C17.8847 17.411 17.9628 17.5997 18.1019 17.7388C18.241 17.8779 18.4297 17.956 18.6264 17.956H22.088C22.2847 17.956 22.4734 17.8779 22.6125 17.7388C22.7516 17.5997 22.8297 17.411 22.8297 17.2143C22.8297 17.0175 22.7516 16.8289 22.6125 16.6898C22.4734 16.5507 22.2847 16.4725 22.088 16.4725H18.6264Z" fill="#467D76" style="fill:#467D76;fill:color(display-p3 0.2745 0.4902 0.4627);fill-opacity:1;"/>
</g>
</svg>
