<svg width="29" height="28" viewBox="0 0 29 28" fill="none" xmlns="http://www.w3.org/2000/svg">
<g id="icon-park-solid:protect" clip-path="url(#clip0_37_1547)">
<g id="Mask group">
<mask id="mask0_37_1547" style="mask-type:luminance" maskUnits="userSpaceOnUse" x="2" y="1" width="24" height="27">
<g id="Group">
<g id="Group_2">
<path id="Vector" d="M3.8075 5.49373L14.1973 2.46143L24.5767 5.49373V11.7118C24.5767 14.8986 23.5738 18.0045 21.7104 20.5896C19.8469 23.1747 17.2172 25.1079 14.1938 26.1153C11.1696 25.108 8.53901 23.1746 6.67486 20.5889C4.81071 18.0032 3.80754 14.8965 3.8075 11.7089V5.49373Z" fill="white" stroke="white" style="fill:white;fill-opacity:1;stroke:white;stroke-opacity:1;" stroke-width="2.30769" stroke-linejoin="round"/>
</g>
</g>
</mask>
<g mask="url(#mask0_37_1547)">
<path id="Vector_2" d="M0.346313 0.153809H28.0386V27.8461H0.346313V0.153809Z" fill="#ED3102" style="fill:#ED3102;fill:color(display-p3 0.9294 0.1922 0.0078);fill-opacity:1;"/>
<g id="+ (Stroke)">
<path fill-rule="evenodd" clip-rule="evenodd" d="M9.66402 15.5466L9.61892 15.4958C9.32942 15.1701 9.19824 14.7721 9.19824 14.3739C9.19824 13.9609 9.3502 13.5253 9.71826 13.2014C10.025 12.9303 10.4092 12.7839 10.8205 12.7839H12.4775V10.9977C12.4775 10.589 12.6092 10.1457 12.9608 9.79413L12.9823 9.77267L13.0048 9.75238C13.3163 9.47208 13.7124 9.31079 14.1482 9.31079C14.5433 9.31079 15.0046 9.4361 15.3588 9.81767C15.6784 10.15 15.819 10.5682 15.819 10.9816V12.7839H17.4921C17.8962 12.7839 18.2937 12.9268 18.6068 13.2273C18.954 13.5489 19.1144 13.9764 19.1144 14.4062C19.1144 14.879 18.9076 15.2686 18.6311 15.5451L17.8152 14.7293C17.9121 14.6323 17.9605 14.5246 17.9605 14.4062C17.9605 14.2662 17.9121 14.1531 17.8152 14.0669C17.729 13.9808 17.6213 13.9377 17.4921 13.9377H14.6652V10.9816C14.6652 10.8308 14.6167 10.7069 14.5198 10.61C14.4336 10.5131 14.3098 10.4646 14.1482 10.4646C14.0082 10.4646 13.8844 10.5131 13.7767 10.61C13.683 10.7037 13.6346 10.8275 13.6315 10.9816C13.6314 10.9869 13.6313 10.9923 13.6313 10.9977V13.9377H10.8205C10.6913 13.9377 10.5782 13.9808 10.4813 14.0669C10.3952 14.1423 10.3521 14.2446 10.3521 14.3739C10.3521 14.5139 10.3952 14.6323 10.4813 14.7293C10.5782 14.8154 10.6913 14.8585 10.8205 14.8585H13.6313V17.8308C13.6313 17.9816 13.6798 18.1054 13.7767 18.2023C13.8736 18.2993 13.9975 18.3477 14.1482 18.3477C14.299 18.3477 14.4229 18.2993 14.5198 18.2023C14.6167 18.1054 14.6652 17.9816 14.6652 17.8308V14.8585H17.4921C17.6213 14.8585 17.729 14.8154 17.8152 14.7293L18.6311 15.5451C18.3144 15.8618 17.9067 16.0123 17.4921 16.0123H15.819V17.8308C15.819 18.254 15.6716 18.6823 15.3357 19.0182C14.9997 19.3542 14.5714 19.5016 14.1482 19.5016C13.7251 19.5016 13.2968 19.3542 12.9608 19.0182C12.6248 18.6823 12.4775 18.254 12.4775 17.8308V16.0123H10.8205C10.4076 16.0123 10.0221 15.8648 9.71475 15.5917L9.66402 15.5466Z" fill="#F9FCFF" style="fill:#F9FCFF;fill:color(display-p3 0.9765 0.9882 1.0000);fill-opacity:1;"/>
<path d="M17.8152 14.7293C17.9121 14.6323 17.9605 14.5246 17.9605 14.4062C17.9605 14.2662 17.9121 14.1531 17.8152 14.0669C17.729 13.9808 17.6213 13.9377 17.4921 13.9377H14.6652V10.9816C14.6652 10.8308 14.6167 10.7069 14.5198 10.61C14.4336 10.5131 14.3098 10.4646 14.1482 10.4646C14.0082 10.4646 13.8844 10.5131 13.7767 10.61C13.683 10.7037 13.6346 10.8275 13.6315 10.9816L13.6313 10.9977V13.9377H10.8205C10.6913 13.9377 10.5782 13.9808 10.4813 14.0669C10.3952 14.1423 10.3521 14.2446 10.3521 14.3739C10.3521 14.5139 10.3952 14.6323 10.4813 14.7293C10.5782 14.8154 10.6913 14.8585 10.8205 14.8585H13.6313V17.8308C13.6313 17.9816 13.6798 18.1054 13.7767 18.2023C13.8736 18.2993 13.9975 18.3477 14.1482 18.3477C14.299 18.3477 14.4229 18.2993 14.5198 18.2023C14.6167 18.1054 14.6652 17.9816 14.6652 17.8308V14.8585H17.4921C17.6213 14.8585 17.729 14.8154 17.8152 14.7293Z" fill="#F9FCFF" style="fill:#F9FCFF;fill:color(display-p3 0.9765 0.9882 1.0000);fill-opacity:1;"/>
</g>
</g>
</g>
</g>
<defs>
<clipPath id="clip0_37_1547">
<rect width="27.6923" height="27.6923" fill="white" style="fill:white;fill-opacity:1;" transform="translate(0.346313 0.153809)"/>
</clipPath>
</defs>
</svg>
