<svg width="28" height="28" viewBox="0 0 28 28" fill="none" xmlns="http://www.w3.org/2000/svg">
<g id="majesticons:article">
<path id="Vector" fill-rule="evenodd" clip-rule="evenodd" d="M2.33331 7C2.33331 6.07174 2.70206 5.1815 3.35844 4.52513C4.01482 3.86875 4.90506 3.5 5.83331 3.5H22.1666C23.0949 3.5 23.9851 3.86875 24.6415 4.52513C25.2979 5.1815 25.6666 6.07174 25.6666 7V21C25.6666 21.9283 25.2979 22.8185 24.6415 23.4749C23.9851 24.1313 23.0949 24.5 22.1666 24.5H5.83331C4.90506 24.5 4.01482 24.1313 3.35844 23.4749C2.70206 22.8185 2.33331 21.9283 2.33331 21V7ZM8.16665 8.16667C7.85723 8.16667 7.56048 8.28958 7.34169 8.50838C7.1229 8.72717 6.99998 9.02391 6.99998 9.33333V14C6.99998 14.3094 7.1229 14.6062 7.34169 14.825C7.56048 15.0437 7.85723 15.1667 8.16665 15.1667H12.8333C13.1427 15.1667 13.4395 15.0437 13.6583 14.825C13.8771 14.6062 14 14.3094 14 14V9.33333C14 9.02391 13.8771 8.72717 13.6583 8.50838C13.4395 8.28958 13.1427 8.16667 12.8333 8.16667H8.16665ZM9.33331 12.8333V10.5H11.6666V12.8333H9.33331ZM17.5 8.16667C17.1906 8.16667 16.8938 8.28958 16.675 8.50838C16.4562 8.72717 16.3333 9.02391 16.3333 9.33333C16.3333 9.64275 16.4562 9.9395 16.675 10.1583C16.8938 10.3771 17.1906 10.5 17.5 10.5H19.8333C20.1427 10.5 20.4395 10.3771 20.6583 10.1583C20.8771 9.9395 21 9.64275 21 9.33333C21 9.02391 20.8771 8.72717 20.6583 8.50838C20.4395 8.28958 20.1427 8.16667 19.8333 8.16667H17.5ZM17.5 12.8333C17.1906 12.8333 16.8938 12.9562 16.675 13.175C16.4562 13.3938 16.3333 13.6906 16.3333 14C16.3333 14.3094 16.4562 14.6062 16.675 14.825C16.8938 15.0437 17.1906 15.1667 17.5 15.1667H19.8333C20.1427 15.1667 20.4395 15.0437 20.6583 14.825C20.8771 14.6062 21 14.3094 21 14C21 13.6906 20.8771 13.3938 20.6583 13.175C20.4395 12.9562 20.1427 12.8333 19.8333 12.8333H17.5ZM8.16665 17.5C7.85723 17.5 7.56048 17.6229 7.34169 17.8417C7.1229 18.0605 6.99998 18.3572 6.99998 18.6667C6.99998 18.9761 7.1229 19.2728 7.34169 19.4916C7.56048 19.7104 7.85723 19.8333 8.16665 19.8333H19.8333C20.1427 19.8333 20.4395 19.7104 20.6583 19.4916C20.8771 19.2728 21 18.9761 21 18.6667C21 18.3572 20.8771 18.0605 20.6583 17.8417C20.4395 17.6229 20.1427 17.5 19.8333 17.5H8.16665Z" fill="#6893E8" style="fill:#6893E8;fill:color(display-p3 0.4078 0.5765 0.9098);fill-opacity:1;"/>
</g>
</svg>
