<svg width="36" height="36" viewBox="0 0 36 36" fill="none" xmlns="http://www.w3.org/2000/svg">
<g id="pajamas:hamburger">
<path id="Vector" fill-rule="evenodd" clip-rule="evenodd" d="M8 11.2C8 10.8817 8.09877 10.5765 8.27459 10.3515C8.4504 10.1264 8.68886 10 8.9375 10H27.0625C27.3111 10 27.5496 10.1264 27.7254 10.3515C27.9012 10.5765 28 10.8817 28 11.2C28 11.5183 27.9012 11.8235 27.7254 12.0485C27.5496 12.2736 27.3111 12.4 27.0625 12.4H8.9375C8.68886 12.4 8.4504 12.2736 8.27459 12.0485C8.09877 11.8235 8 11.5183 8 11.2ZM8 18C8 17.6817 8.09877 17.3765 8.27459 17.1515C8.4504 16.9264 8.68886 16.8 8.9375 16.8H27.0625C27.3111 16.8 27.5496 16.9264 27.7254 17.1515C27.9012 17.3765 28 17.6817 28 18C28 18.3183 27.9012 18.6235 27.7254 18.8485C27.5496 19.0736 27.3111 19.2 27.0625 19.2H8.9375C8.68886 19.2 8.4504 19.0736 8.27459 18.8485C8.09877 18.6235 8 18.3183 8 18ZM8.9375 23.6C8.68886 23.6 8.4504 23.7264 8.27459 23.9515C8.09877 24.1765 8 24.4817 8 24.8C8 25.1183 8.09877 25.4235 8.27459 25.6485C8.4504 25.8736 8.68886 26 8.9375 26H27.0625C27.3111 26 27.5496 25.8736 27.7254 25.6485C27.9012 25.4235 28 25.1183 28 24.8C28 24.4817 27.9012 24.1765 27.7254 23.9515C27.5496 23.7264 27.3111 23.6 27.0625 23.6H8.9375Z" fill="#F9FCFF" style="fill:#F9FCFF;fill:color(display-p3 0.9765 0.9882 1.0000);fill-opacity:1;"/>
</g>
</svg>
