<svg width="28" height="28" viewBox="0 0 28 28" fill="none" xmlns="http://www.w3.org/2000/svg">
<g id="solar:health-bold">
<path id="Vector" fill-rule="evenodd" clip-rule="evenodd" d="M10.4556 21.5472C7.02215 18.9163 2.33331 14.5705 2.33331 10.4615C2.33331 3.59683 8.74998 1.03366 14 6.33499C19.25 1.03366 25.6666 3.59683 25.6666 10.4615C25.6666 14.5705 20.9766 18.9163 17.5443 21.5472C15.9903 22.7372 15.2133 23.3333 14 23.3333C12.7866 23.3333 12.0096 22.7383 10.4556 21.5472ZM19.25 7.29166C19.482 7.29166 19.7046 7.38385 19.8687 7.54794C20.0328 7.71203 20.125 7.93459 20.125 8.16666V9.62499H21.5833C21.8154 9.62499 22.0379 9.71718 22.202 9.88127C22.3661 10.0454 22.4583 10.2679 22.4583 10.5C22.4583 10.7321 22.3661 10.9546 22.202 11.1187C22.0379 11.2828 21.8154 11.375 21.5833 11.375H20.125V12.8333C20.125 13.0654 20.0328 13.2879 19.8687 13.452C19.7046 13.6161 19.482 13.7083 19.25 13.7083C19.0179 13.7083 18.7954 13.6161 18.6313 13.452C18.4672 13.2879 18.375 13.0654 18.375 12.8333V11.375H16.9166C16.6846 11.375 16.462 11.2828 16.2979 11.1187C16.1338 10.9546 16.0416 10.7321 16.0416 10.5C16.0416 10.2679 16.1338 10.0454 16.2979 9.88127C16.462 9.71718 16.6846 9.62499 16.9166 9.62499H18.375V8.16666C18.375 7.93459 18.4672 7.71203 18.6313 7.54794C18.7954 7.38385 19.0179 7.29166 19.25 7.29166Z" fill="#ED3102" style="fill:#ED3102;fill:color(display-p3 0.9294 0.1922 0.0078);fill-opacity:1;"/>
</g>
</svg>
