<svg width="28" height="28" viewBox="0 0 28 28" fill="none" xmlns="http://www.w3.org/2000/svg">
<g id="tabler:coin">
<g id="Group">
<path id="Vector" d="M3.78663 11.5635C3.46666 12.9047 3.414 14.2959 3.63166 15.6575C3.84932 17.019 4.33303 18.3244 5.05518 19.4991C5.77733 20.6737 6.72377 21.6947 7.84047 22.5035C8.95717 23.3124 10.2223 23.8934 11.5635 24.2134C12.9047 24.5334 14.2959 24.586 15.6575 24.3684C17.0191 24.1507 18.3244 23.667 19.4991 22.9448C20.6737 22.2227 21.6947 21.2763 22.5035 20.1596C23.3124 19.0429 23.8934 17.7778 24.2134 16.4365C24.5334 15.0953 24.586 13.7042 24.3684 12.3426C24.1507 10.981 23.667 9.67558 22.9449 8.50093C22.2227 7.32627 21.2763 6.30536 20.1596 5.49648C19.0429 4.6876 17.7778 4.10658 16.4365 3.78662C15.0953 3.46665 13.7042 3.41399 12.3426 3.63165C10.981 3.84931 9.67559 4.33302 8.50094 5.05517C7.32628 5.77732 6.30537 6.72376 5.49649 7.84046C4.68761 8.95716 4.10659 10.2222 3.78663 11.5635Z" stroke="#FAA78E" style="stroke:#FAA78E;stroke:color(display-p3 0.9804 0.6549 0.5569);stroke-opacity:1;" stroke-width="2" stroke-linecap="round" stroke-linejoin="round"/>
<path id="Vector_2" d="M17.9897 11.3535C17.8692 10.9479 17.6407 10.5826 17.3286 10.2969C17.0164 10.0112 16.6325 9.81568 16.2178 9.73139L13.9481 9.18994C13.3462 9.04634 12.7119 9.14774 12.1847 9.47184C11.6575 9.79594 11.2806 10.3162 11.137 10.9181C10.9934 11.5201 11.0948 12.1544 11.4189 12.6816C11.743 13.2088 12.2633 13.5856 12.8652 13.7292L15.1349 14.2707C15.7368 14.4143 16.2571 14.7911 16.5812 15.3183C16.9053 15.8455 17.0067 16.4798 16.8631 17.0818C16.7195 17.6837 16.3426 18.204 15.8155 18.5281C15.2883 18.8522 14.6539 18.9536 14.052 18.81L11.7823 18.2685C11.3677 18.1842 10.9837 17.9887 10.6716 17.703C10.3594 17.4173 10.1309 17.052 10.0104 16.6464M15.3537 8.32584L12.6464 19.6741" stroke="#FAA78E" style="stroke:#FAA78E;stroke:color(display-p3 0.9804 0.6549 0.5569);stroke-opacity:1;" stroke-width="2" stroke-linecap="round" stroke-linejoin="round"/>
</g>
</g>
</svg>
