<svg width="28" height="28" viewBox="0 0 28 28" fill="none" xmlns="http://www.w3.org/2000/svg">
<g id="tdesign:member">
<path id="Vector" d="M6.41667 8.16671C6.41667 7.70708 6.5072 7.25195 6.68309 6.82732C6.85898 6.40268 7.11679 6.01684 7.44179 5.69183C7.7668 5.36683 8.15263 5.10902 8.57727 4.93313C9.00191 4.75724 9.45704 4.66671 9.91667 4.66671C10.3763 4.66671 10.8314 4.75724 11.2561 4.93313C11.6807 5.10902 12.0665 5.36683 12.3915 5.69183C12.7165 6.01684 12.9744 6.40268 13.1502 6.82732C13.3261 7.25195 13.4167 7.70708 13.4167 8.16671C13.4167 9.09496 13.0479 9.9852 12.3915 10.6416C11.7352 11.298 10.8449 11.6667 9.91667 11.6667C8.98841 11.6667 8.09817 11.298 7.44179 10.6416C6.78542 9.9852 6.41667 9.09496 6.41667 8.16671ZM9.91667 2.33337C8.36957 2.33337 6.88584 2.94796 5.79188 4.04192C4.69791 5.13588 4.08333 6.61961 4.08333 8.16671C4.08333 9.7138 4.69791 11.1975 5.79188 12.2915C6.88584 13.3855 8.36957 14 9.91667 14C11.4638 14 12.9475 13.3855 14.0415 12.2915C15.1354 11.1975 15.75 9.7138 15.75 8.16671C15.75 6.61961 15.1354 5.13588 14.0415 4.04192C12.9475 2.94796 11.4638 2.33337 9.91667 2.33337ZM18.0833 2.33337H16.9167V4.66671H18.0833C18.543 4.66671 18.9981 4.75724 19.4227 4.93313C19.8474 5.10902 20.2332 5.36683 20.5582 5.69183C20.8832 6.01684 21.141 6.40268 21.3169 6.82732C21.4928 7.25195 21.5833 7.70708 21.5833 8.16671C21.5833 8.62633 21.4928 9.08146 21.3169 9.5061C21.141 9.93074 20.8832 10.3166 20.5582 10.6416C20.2332 10.9666 19.8474 11.2244 19.4227 11.4003C18.9981 11.5762 18.543 11.6667 18.0833 11.6667H16.9167V14H18.0833C19.6304 14 21.1142 13.3855 22.2081 12.2915C23.3021 11.1975 23.9167 9.7138 23.9167 8.16671C23.9167 6.61961 23.3021 5.13588 22.2081 4.04192C21.1142 2.94796 19.6304 2.33337 18.0833 2.33337ZM0 22.1667C0 20.6196 0.614582 19.1359 1.70854 18.0419C2.80251 16.948 4.28624 16.3334 5.83333 16.3334H14C15.5471 16.3334 17.0308 16.948 18.1248 18.0419C19.2188 19.1359 19.8333 20.6196 19.8333 22.1667V24.5H17.5V22.1667C17.5 21.2384 17.1313 20.3482 16.4749 19.6918C15.8185 19.0355 14.9283 18.6667 14 18.6667H5.83333C4.90508 18.6667 4.01484 19.0355 3.35846 19.6918C2.70208 20.3482 2.33333 21.2384 2.33333 22.1667V24.5H0V22.1667ZM28 22.1667C28 21.4007 27.8491 20.6421 27.556 19.9344C27.2628 19.2267 26.8331 18.5836 26.2915 18.0419C25.7498 17.5002 25.1067 17.0706 24.399 16.7774C23.6913 16.4843 22.9327 16.3334 22.1667 16.3334H21V18.6667H22.1667C23.0949 18.6667 23.9852 19.0355 24.6415 19.6918C25.2979 20.3482 25.6667 21.2384 25.6667 22.1667V24.5H28V22.1667Z" fill="#EDCA02" style="fill:#EDCA02;fill:color(display-p3 0.9294 0.7922 0.0078);fill-opacity:1;"/>
</g>
</svg>
