<svg width="29" height="28" viewBox="0 0 29 28" fill="none" xmlns="http://www.w3.org/2000/svg">
<g id="uis:schedule">
<path id="Vector" d="M22.8845 4.76912H21.7307V3.61527C21.7307 2.92296 21.2692 2.46143 20.5769 2.46143C19.8845 2.46143 19.423 2.92296 19.423 3.61527V4.76912H10.1922V3.61527C10.1922 2.92296 9.7307 2.46143 9.03839 2.46143C8.34609 2.46143 7.88455 2.92296 7.88455 3.61527V4.76912H6.7307C4.76916 4.76912 3.26917 6.26912 3.26917 8.23066V9.3845H26.3461V8.23066C26.3461 6.26912 24.8461 4.76912 22.8845 4.76912ZM3.26917 22.0768C3.26917 24.0383 4.76916 25.5383 6.7307 25.5383H22.8845C24.8461 25.5383 26.3461 24.0383 26.3461 22.0768V11.6922H3.26917V22.0768ZM20.5769 13.9999C21.2692 13.9999 21.7307 14.4614 21.7307 15.1537C21.7307 15.846 21.2692 16.3076 20.5769 16.3076C19.8845 16.3076 19.423 15.846 19.423 15.1537C19.423 14.4614 19.8845 13.9999 20.5769 13.9999ZM20.5769 18.6153C21.2692 18.6153 21.7307 19.0768 21.7307 19.7691C21.7307 20.4614 21.2692 20.923 20.5769 20.923C19.8845 20.923 19.423 20.4614 19.423 19.7691C19.423 19.0768 19.8845 18.6153 20.5769 18.6153ZM14.8076 13.9999C15.4999 13.9999 15.9615 14.4614 15.9615 15.1537C15.9615 15.846 15.4999 16.3076 14.8076 16.3076C14.1153 16.3076 13.6538 15.846 13.6538 15.1537C13.6538 14.4614 14.1153 13.9999 14.8076 13.9999ZM14.8076 18.6153C15.4999 18.6153 15.9615 19.0768 15.9615 19.7691C15.9615 20.4614 15.4999 20.923 14.8076 20.923C14.1153 20.923 13.6538 20.4614 13.6538 19.7691C13.6538 19.0768 14.1153 18.6153 14.8076 18.6153ZM9.03839 13.9999C9.7307 13.9999 10.1922 14.4614 10.1922 15.1537C10.1922 15.846 9.7307 16.3076 9.03839 16.3076C8.34609 16.3076 7.88455 15.846 7.88455 15.1537C7.88455 14.4614 8.34609 13.9999 9.03839 13.9999ZM9.03839 18.6153C9.7307 18.6153 10.1922 19.0768 10.1922 19.7691C10.1922 20.4614 9.7307 20.923 9.03839 20.923C8.34609 20.923 7.88455 20.4614 7.88455 19.7691C7.88455 19.0768 8.34609 18.6153 9.03839 18.6153Z" fill="#F76C42" style="fill:#F76C42;fill:color(display-p3 0.9686 0.4235 0.2588);fill-opacity:1;"/>
</g>
</svg>
